<svg xmlns="http://www.w3.org/2000/svg" viewBox="0 0 0 0"><symbol fill="none" viewBox="0 0 24 24" id="all_categories_outline_24" ><path fill-rule="evenodd" clip-rule="evenodd" d="M7.6 10.9h.033c.392 0 .738 0 1.026-.024.305-.025.622-.08.93-.238a2.4 2.4 0 0 0 1.05-1.049c.157-.308.213-.625.238-.93.023-.288.023-.635.023-1.026V6.366c0-.391 0-.738-.023-1.025-.025-.306-.081-.623-.239-.931A2.4 2.4 0 0 0 9.59 3.361c-.309-.157-.626-.213-.931-.238A13.48 13.48 0 0 0 7.633 3.1H6.367c-.392 0-.738 0-1.025.023-.306.025-.623.081-.931.238A2.4 2.4 0 0 0 3.36 4.41c-.156.308-.212.625-.237.931A13.48 13.48 0 0 0 3.1 6.366v1.267c0 .391 0 .738.024 1.025.025.306.08.623.238.931a2.4 2.4 0 0 0 1.049 1.049c.308.157.625.213.93.238.288.024.634.024 1.026.024H7.6Zm1.172-1.866c-.012.007-.066.032-.26.048-.205.017-.477.018-.912.018H6.4c-.435 0-.707-.001-.912-.018-.194-.016-.248-.041-.26-.048a.6.6 0 0 1-.263-.262c-.006-.012-.032-.066-.047-.26A12.65 12.65 0 0 1 4.9 7.6V6.4c0-.435 0-.707.018-.912.015-.195.041-.248.047-.26a.6.6 0 0 1 .263-.263c.012-.006.066-.032.26-.048.205-.017.477-.017.912-.017h1.2c.435 0 .707 0 .912.017.194.016.248.042.26.048a.6.6 0 0 1 .263.262c.006.013.032.066.048.26.016.206.017.478.017.913v1.2c0 .434 0 .707-.017.912-.016.194-.042.248-.048.26a.6.6 0 0 1-.263.262ZM7.6 20.9h.033c.392 0 .738 0 1.026-.024.305-.025.622-.08.93-.238a2.4 2.4 0 0 0 1.05-1.049c.157-.308.213-.625.238-.93.023-.288.023-.634.023-1.026v-1.267c0-.391 0-.738-.023-1.025-.025-.306-.081-.622-.239-.931a2.4 2.4 0 0 0-1.048-1.049c-.309-.157-.626-.213-.931-.238-.288-.023-.634-.023-1.025-.023H6.366c-.392 0-.738 0-1.025.023-.306.025-.623.081-.931.238a2.4 2.4 0 0 0-1.05 1.049 2.439 2.439 0 0 0-.237.931 13.48 13.48 0 0 0-.024 1.025v1.267c0 .392 0 .738.024 1.025.025.306.08.623.238.931a2.4 2.4 0 0 0 1.049 1.049c.308.157.625.213.93.238.288.024.634.024 1.026.024H7.6Zm1.172-1.866c-.012.007-.066.032-.26.048-.205.017-.477.018-.912.018H6.4c-.435 0-.707-.001-.912-.018-.194-.016-.248-.041-.26-.048a.6.6 0 0 1-.263-.262c-.006-.012-.032-.066-.047-.26A12.65 12.65 0 0 1 4.9 17.6v-1.2c0-.435 0-.707.018-.912.015-.195.041-.248.047-.26a.6.6 0 0 1 .263-.263c.012-.006.066-.032.26-.048.205-.017.477-.017.912-.017h1.2c.435 0 .707 0 .912.017.194.016.248.042.26.048a.6.6 0 0 1 .263.262c.006.013.032.066.048.26.016.206.017.478.017.913v1.2c0 .434 0 .706-.017.912-.016.194-.042.248-.048.26a.6.6 0 0 1-.263.262Zm8.861-8.134H16.367c-.392 0-.738 0-1.025-.024-.306-.025-.623-.08-.931-.238a2.4 2.4 0 0 1-1.05-1.049c-.157-.308-.213-.625-.238-.93-.023-.288-.023-.635-.023-1.026V6.366c0-.391 0-.738.024-1.025.024-.306.08-.623.238-.931a2.4 2.4 0 0 1 1.049-1.049c.308-.157.625-.213.93-.238a13.48 13.48 0 0 1 1.026-.023H17.633c.392 0 .738 0 1.026.023.305.025.622.081.93.238a2.4 2.4 0 0 1 1.05 1.049c.157.308.213.625.238.931.023.287.023.634.023 1.025v1.267c0 .391 0 .738-.023 1.025-.025.306-.081.623-.238.931a2.4 2.4 0 0 1-1.05 1.049c-.308.157-.625.213-.93.238-.288.024-.634.024-1.026.024Zm.879-1.818c.194-.016.248-.041.26-.048a.6.6 0 0 0 .263-.262c.006-.012.032-.066.048-.26.016-.205.017-.478.017-.912V6.4c0-.435 0-.707-.017-.912-.016-.195-.042-.248-.048-.26a.6.6 0 0 0-.262-.263c-.013-.006-.067-.032-.261-.048A12.65 12.65 0 0 0 17.6 4.9h-1.2c-.435 0-.707 0-.912.017-.194.016-.248.042-.26.048a.6.6 0 0 0-.262.262c-.007.013-.033.066-.048.26-.017.206-.018.478-.018.913v1.2c0 .434 0 .707.018.912.015.194.041.248.048.26a.6.6 0 0 0 .262.262c.012.007.066.032.26.048.205.017.477.018.912.018h1.2c.435 0 .707-.001.912-.018ZM17.6 20.9h.033c.392 0 .739 0 1.026-.024.305-.025.622-.08.93-.238a2.4 2.4 0 0 0 1.05-1.049c.157-.308.213-.625.238-.93.023-.288.023-.634.023-1.026v-1.267c0-.391 0-.738-.023-1.025-.025-.306-.081-.622-.238-.931a2.4 2.4 0 0 0-1.05-1.049c-.308-.157-.625-.213-.93-.238-.288-.023-.634-.023-1.025-.023h-1.267c-.392 0-.738 0-1.025.023-.306.025-.623.081-.931.238a2.4 2.4 0 0 0-1.05 1.049c-.157.309-.213.625-.238.931-.023.287-.023.634-.023 1.025v1.267c0 .392 0 .738.024 1.025.024.306.08.623.238.931a2.4 2.4 0 0 0 1.049 1.049c.308.157.625.213.93.238.288.024.634.024 1.026.024H17.6Zm1.172-1.866c-.012.007-.066.032-.26.048-.205.017-.477.018-.912.018h-1.2c-.435 0-.707-.001-.912-.018-.194-.016-.248-.041-.26-.048a.6.6 0 0 1-.262-.262c-.007-.012-.033-.066-.048-.26a12.688 12.688 0 0 1-.018-.912v-1.2c0-.435 0-.707.018-.912.015-.195.041-.248.048-.26a.6.6 0 0 1 .262-.263c.012-.006.066-.032.26-.048.205-.017.477-.017.912-.017h1.2c.435 0 .707 0 .912.017.194.016.248.042.26.048a.6.6 0 0 1 .263.262c.006.013.032.066.048.26.016.206.017.478.017.913v1.2c0 .434 0 .706-.017.912-.016.194-.042.248-.048.26a.6.6 0 0 1-.262.262Z" fill="currentColor"/></symbol><symbol fill="none" viewBox="0 0 24 24" id="arrow_back_outline" ><path d="m7.8 11 4.9-4.9a.99.99 0 1 0-1.4-1.4l-6.593 6.593a1 1 0 0 0 0 1.414L11.3 19.3a.99.99 0 1 0 1.4-1.4L7.8 13H20a1 1 0 1 0 0-2H7.8Z" fill="currentColor"/></symbol><symbol fill="none" viewBox="0 0 24 24" id="arrow_right_outline_24" ><path d="M12.468 4.26a.9.9 0 0 0-.089 1.18l.08.092L17.95 11.1H3.9a.9.9 0 0 0-.113 1.793l.113.007h14.05l-5.49 5.568a.9.9 0 0 0-.073 1.181l.081.092a.9.9 0 0 0 1.181.072l.092-.081 7-7.1a.9.9 0 0 0 .08-1.172l-.08-.092-7-7.1a.9.9 0 0 0-1.273-.009Z" fill="currentColor"/></symbol><symbol fill="none" viewBox="0 0 24 24" id="back" ><path d="M10.537 5.394a.857.857 0 1 1 1.212 1.212l-4.537 4.537h11.645c.44 0 .802.33.852.757l.005.1a.857.857 0 0 1-.857.857H7.212l4.537 4.537a.857.857 0 0 1 .071 1.131l-.071.081a.857.857 0 0 1-1.212 0l-6-6-.063-.07a1.292 1.292 0 0 1-.063-.09.786.786 0 0 1-.095-.218.808.808 0 0 1-.03-.228l.003.076a.874.874 0 0 1-.003-.06V12a.825.825 0 0 1 .042-.268.821.821 0 0 1 .126-.242.86.86 0 0 1 .083-.096l-.069.077a.86.86 0 0 1 .069-.077l6-6Z" fill="currentColor"/></symbol><symbol fill="none" viewBox="0 0 40 40" id="calendar" ><path d="M27.142 1.429c.79 0 1.429.64 1.429 1.428v1.657c1.2.191 1.977.5 2.758.917a7.789 7.789 0 0 1 3.24 3.24c.679 1.269 1.069 2.529 1.135 5.614h.01v10.441l-.008.872c-.058 3.17-.45 4.446-1.137 5.732a7.79 7.79 0 0 1-3.24 3.24c-1.397.747-2.783 1.144-6.603 1.144h-9.453l-.871-.007c-3.171-.059-4.447-.45-5.732-1.137a7.789 7.789 0 0 1-3.24-3.24c-.717-1.341-1.112-2.672-1.143-6.157l-.002-9.9v-.987C4.361 11.2 4.751 9.94 5.43 8.67a7.788 7.788 0 0 1 3.24-3.24c.78-.418 1.558-.726 2.758-.917V2.857a1.429 1.429 0 0 1 2.857 0l-.001 1.439c.31-.007.64-.01.99-.01h9.452c.35 0 .68.003.99.01l-.002-1.439c0-.789.64-1.428 1.428-1.428Zm5.713 15.714H7.142l.002 7.988.012.812c.056 2.153.283 3.085.793 4.04a4.932 4.932 0 0 0 2.069 2.067c1.066.57 2.104.787 4.851.806h10.26l.813-.013c2.154-.055 3.085-.283 4.04-.793a4.932 4.932 0 0 0 2.067-2.068c.57-1.066.788-2.105.806-4.851v-7.988Zm-5.647 7.143c.618 0 1.105.116 1.513.334.407.218.727.537.945.945.217.407.333.894.333 1.512v.132c0 .618-.116 1.105-.333 1.512a2.272 2.272 0 0 1-.945.945c-.408.218-.895.334-1.513.334h-.131c-.619 0-1.106-.116-1.513-.334a2.272 2.272 0 0 1-.945-.945c-.218-.407-.334-.894-.334-1.512v-.132c0-.618.116-1.105.334-1.512.218-.408.538-.727.945-.945.407-.218.894-.334 1.513-.334h.131ZM25.13 7.144H14.869l-.584.008v1.42a1.429 1.429 0 0 1-2.857 0l-.001-1.154a5.48 5.48 0 0 0-1.41.532 4.932 4.932 0 0 0-2.068 2.068c-.527.987-.753 1.95-.798 4.266l25.696.002-.004-.229c-.056-2.153-.283-3.085-.794-4.039a4.932 4.932 0 0 0-2.068-2.068 5.48 5.48 0 0 0-1.409-.532l-.001 1.154a1.429 1.429 0 0 1-2.857 0l.003-1.42a45.87 45.87 0 0 0-.587-.008Z" fill="currentColor"/></symbol><symbol viewBox="0 0 24 24" fill="none" id="cancel_outline" ><path d="M7.536 6.264a.9.9 0 0 0-1.272 1.272L10.727 12l-4.463 4.464a.9.9 0 0 0 1.272 1.272L12 13.273l4.464 4.463a.9.9 0 1 0 1.272-1.272L13.273 12l4.463-4.464a.9.9 0 1 0-1.272-1.272L12 10.727 7.536 6.264Z" fill="currentColor"/></symbol><symbol fill="none" viewBox="0 0 28 28" id="cancel_outline_28" ><path d="M6.293 6.293a1 1 0 0 1 1.414 0L14 12.585l6.293-6.292a1 1 0 0 1 1.32-.083l.094.083a1 1 0 0 1 0 1.414L15.415 14l6.292 6.293a1 1 0 0 1 .083 1.32l-.083.094a1 1 0 0 1-1.414 0L14 15.415l-6.293 6.292a1 1 0 0 1-1.32.083l-.094-.083a1 1 0 0 1 0-1.414L12.585 14 6.293 7.707a1 1 0 0 1-.083-1.32l.083-.094Z" fill="#99A2AD"/></symbol><symbol fill="none" viewBox="0 0 24 24" id="chevron_down_small" ><path fill-rule="evenodd" clip-rule="evenodd" d="M17.736 9.264a.9.9 0 0 0-1.272 0L12 13.727 7.536 9.264a.9.9 0 0 0-1.272 1.272l5.1 5.1a.9.9 0 0 0 1.272 0l5.1-5.1a.9.9 0 0 0 0-1.272Z" fill="currentColor"/></symbol><symbol fill="none" viewBox="0 0 16 16" id="close" ><path d="M.293.293a1 1 0 0 1 1.414 0L8 6.585 14.293.293a1 1 0 0 1 1.32-.083l.094.083a1 1 0 0 1 0 1.414L9.415 8l6.292 6.293a1 1 0 0 1 .083 1.32l-.083.094a1 1 0 0 1-1.414 0L8 9.415l-6.293 6.292a1 1 0 0 1-1.32.083l-.094-.083a1 1 0 0 1 0-1.414L6.585 8 .293 1.707A1 1 0 0 1 .21.387L.293.293Z" fill="currentColor"/></symbol><symbol fill="none" viewBox="0 0 16 16" id="cons_substract_filled" ><path fill-rule="evenodd" clip-rule="evenodd" d="M16 8A8 8 0 1 0 0 8a8 8 0 0 0 16 0ZM4.9 7.1a.9.9 0 1 0 0 1.8h6.2a.9.9 0 1 0 0-1.8H4.9Z" fill="#99A2AD"/></symbol><symbol fill="none" viewBox="0 0 36 36" id="defaultAvatar" ><path d="M0 18C0 8.059 8.059 0 18 0s18 8.059 18 18-8.059 18-18 18S0 27.941 0 18Z" fill="#99A2AD"/><path d="M23 11.748a5 5 0 1 0-10 0 5 5 0 0 0 10 0ZM24.245 18.338H11.813a5 5 0 0 0 0 10h12.434a5 5 0 0 0 0-10Z" fill="#E1E3E6"/></symbol><symbol fill="none" viewBox="0 0 20 20" id="dislike" ><path fill-rule="evenodd" clip-rule="evenodd" d="M12.867 4.5a3.25 3.25 0 0 1 3.083 2.222l1.088 3.265A1.53 1.53 0 0 1 15.588 12H11.75a.75.75 0 0 0-.742.856l.46 3.23c.018.117.02.235.006.353-.072.647-.94.852-1.29.281a110.855 110.855 0 0 0-1.81-2.886 6.127 6.127 0 0 0-1.852-1.782A6.19 6.19 0 0 0 6 11.759V4.5h6.867ZM4.5 4.5v7h-.75c-.69 0-1.25-.56-1.25-1.25v-4.5c0-.69.56-1.25 1.25-1.25h.75Zm.61 8.5H3.75A2.75 2.75 0 0 1 1 10.25v-4.5A2.75 2.75 0 0 1 3.75 3h9.117a4.75 4.75 0 0 1 4.506 3.248l1.088 3.265a3.03 3.03 0 0 1-2.873 3.987h-2.973l.339 2.373c.034.243.038.488.011.732-.231 2.084-2.973 2.672-4.06.899a109.704 109.704 0 0 0-1.779-2.838 4.627 4.627 0 0 0-1.399-1.343A4.54 4.54 0 0 0 5.112 13Z" fill="currentColor"/></symbol><symbol fill="none" viewBox="0 0 24 24" id="done" ><path fill-rule="evenodd" clip-rule="evenodd" d="M20.207 6.293a1 1 0 0 1 0 1.414l-10.5 10.5a1 1 0 0 1-1.414 0l-4-4a1 1 0 1 1 1.414-1.414L9 16.086l9.793-9.793a1 1 0 0 1 1.414 0Z" fill="currentColor"/></symbol><symbol fill="none" viewBox="0 0 20 20" id="download_outline" ><path fill-rule="evenodd" clip-rule="evenodd" d="M4 17.75a.75.75 0 0 1 .75-.75h10.5a.75.75 0 0 1 0 1.5H4.75a.75.75 0 0 1-.75-.75Z" fill="currentColor"/><path d="M10.75 2.726c0-.401-.336-.726-.75-.726a.738.738 0 0 0-.75.726v9.722l-3.97-3.97a.75.75 0 0 0-1.06 1.06l5.245 5.245a.75.75 0 0 0 1.06 0l5.256-5.255a.75.75 0 0 0-1.06-1.061l-3.972 3.971V2.726Z" fill="currentColor"/></symbol><symbol fill="none" viewBox="0 0 24 24" id="fire_alt_24" ><path fill-rule="evenodd" clip-rule="evenodd" d="M14.977 12c2.375-7.5-3.563-10-3.563-10 0 3.75-2.189 4.594-4.156 6.25C4.29 10.75 4 12.625 4 14.5c0 5 5.633 6.875 5.633 6.875-2.375-5 1.188-7.5 1.188-7.5 0 6.25 4.75 8.125 4.75 8.125 8.312-4.375 2.374-14.375 2.374-14.375 0 3.125-2.968 4.375-2.968 4.375Z" fill="#F05C44"/></symbol><symbol fill="none" viewBox="0 0 28 28" id="history_back_outline" ><path d="M14 2c6.627 0 12 5.373 12 12s-5.373 12-12 12c-3.226 0-6.251-1.28-8.487-3.516a1 1 0 1 1 1.415-1.414A9.964 9.964 0 0 0 14 24c5.523 0 10-4.477 10-10S19.523 4 14 4a9.974 9.974 0 0 0-7.143 3H8.5a1 1 0 0 1 .117 1.993L8.5 9h-4a1 1 0 0 1-.993-.883L3.5 8V4a1 1 0 0 1 1.993-.117L5.5 4v1.529A11.973 11.973 0 0 1 14 2Zm0 6a1 1 0 0 1 .993.883L15 9v4.586l2.707 2.707a1 1 0 0 1-1.32 1.497l-.094-.083-3-3a1 1 0 0 1-.284-.576L13 14V9a1 1 0 0 1 1-1Z" fill="#99A2AD"/></symbol><symbol fill="none" viewBox="0 0 24 24" id="info_circle_outline" ><path d="M12 20.105a8.105 8.105 0 1 0 0-16.21 8.105 8.105 0 0 0 0 16.21ZM12 22C6.477 22 2 17.523 2 12S6.477 2 12 2s10 4.477 10 10-4.477 10-10 10Zm0-12.372a1.316 1.316 0 1 1 0-2.632 1.316 1.316 0 0 1 0 2.632Zm-.947 2.822c0-.541.424-.98.947-.98.523 0 .947.439.947.98v3.83c0 .54-.424.98-.947.98-.523 0-.947-.44-.947-.98v-3.83Z" fill="currentColor"/></symbol><symbol fill="none" viewBox="0 0 20 20" id="like" ><path fill-rule="evenodd" clip-rule="evenodd" d="M13.367 15.054a3.25 3.25 0 0 0 3.083-2.222l1.088-3.265a1.53 1.53 0 0 0-1.45-2.013H12.25a.75.75 0 0 1-.742-.856l.46-3.23c.018-.116.02-.235.006-.353-.072-.647-.94-.851-1.29-.281a110.801 110.801 0 0 1-1.81 2.886 6.127 6.127 0 0 1-1.852 1.783c-.193.12-.37.217-.522.292v7.26h6.867Zm-8.367 0v-7h-.75c-.69 0-1.25.56-1.25 1.25v4.5c0 .69.56 1.25 1.25 1.25H5Zm.61-8.5H4.25a2.75 2.75 0 0 0-2.75 2.75v4.5a2.75 2.75 0 0 0 2.75 2.75h9.117a4.75 4.75 0 0 0 4.506-3.248l1.088-3.265a3.03 3.03 0 0 0-2.873-3.987h-2.973l.339-2.373c.034-.242.038-.488.011-.732-.231-2.084-2.973-2.672-4.06-.899a109.737 109.737 0 0 1-1.779 2.838 4.628 4.628 0 0 1-1.399 1.343 4.527 4.527 0 0 1-.616.323Z" fill="currentColor"/></symbol><symbol viewBox="0 0 1024 1024" id="loading" ><path d="M512 1024c-69.1 0-136.2-13.5-199.3-40.2C251.7 958 197 921 150 874c-47-47-84-101.7-109.8-162.7C13.5 648.2 0 581.1 0 512c0-19.9 16.1-36 36-36s36 16.1 36 36c0 59.4 11.6 117 34.6 171.3 22.2 52.4 53.9 99.5 94.3 139.9 40.4 40.4 87.5 72.2 139.9 94.3C395 940.4 452.6 952 512 952c59.4 0 117-11.6 171.3-34.6 52.4-22.2 99.5-53.9 139.9-94.3 40.4-40.4 72.2-87.5 94.3-139.9C940.4 629 952 571.4 952 512c0-59.4-11.6-117-34.6-171.3a440.45 440.45 0 0 0-94.3-139.9 437.71 437.71 0 0 0-139.9-94.3C629 83.6 571.4 72 512 72c-19.9 0-36-16.1-36-36s16.1-36 36-36c69.1 0 136.2 13.5 199.3 40.2C772.3 66 827 103 874 150c47 47 83.9 101.8 109.7 162.7 26.7 63.1 40.2 130.2 40.2 199.3s-13.5 136.2-40.2 199.3C958 772.3 921 827 874 874c-47 47-101.8 83.9-162.7 109.7-63.1 26.8-130.2 40.3-199.3 40.3z"/></symbol><symbol fill="none" viewBox="0 0 16 16" id="pros_substract_filled" ><path fill-rule="evenodd" clip-rule="evenodd" d="M16 8A8 8 0 1 0 0 8a8 8 0 0 0 16 0ZM8 4a.9.9 0 0 1 .9.9v2.2h2.2a.9.9 0 1 1 0 1.8H8.9v2.2a.9.9 0 1 1-1.8 0V8.9H4.9a.9.9 0 0 1 0-1.8h2.2V4.9A.9.9 0 0 1 8 4Z" fill="#07F"/></symbol><symbol fill="none" viewBox="0 0 24 24" id="qrCode" ><path d="M8.5 13a2.5 2.5 0 0 1 2.5 2.5v4A2.5 2.5 0 0 1 8.5 22h-4A2.5 2.5 0 0 1 2 19.5v-4A2.5 2.5 0 0 1 4.5 13h4ZM21 19a.5.5 0 0 1 .5.5V21a.5.5 0 0 1-.5.5h-1.5a.5.5 0 0 1-.5-.5v-1.5a.5.5 0 0 1 .5-.5H21Zm-5.5 0a.5.5 0 0 1 .5.5V21a.5.5 0 0 1-.5.5H14a.5.5 0 0 1-.5-.5v-1.5a.5.5 0 0 1 .5-.5h1.5Zm-7.25-4.25h-3.5a1 1 0 0 0-1 1v3.5a1 1 0 0 0 1 1h3.5a1 1 0 0 0 1-1v-3.5a1 1 0 0 0-1-1Zm10 1.5a.5.5 0 0 1 .5.5v1.5a.5.5 0 0 1-.5.5h-1.5a.5.5 0 0 1-.5-.5v-1.5a.5.5 0 0 1 .5-.5h1.5Zm-11 0a.5.5 0 0 1 .5.5v1.5a.5.5 0 0 1-.5.5h-1.5a.5.5 0 0 1-.5-.5v-1.5a.5.5 0 0 1 .5-.5h1.5ZM21 13.5a.5.5 0 0 1 .5.5v1.5a.5.5 0 0 1-.5.5h-1.5a.5.5 0 0 1-.5-.5V14a.5.5 0 0 1 .5-.5H21Zm-5.5 0a.5.5 0 0 1 .5.5v1.5a.5.5 0 0 1-.5.5H14a.5.5 0 0 1-.5-.5V14a.5.5 0 0 1 .5-.5h1.5Zm4-11.5A2.5 2.5 0 0 1 22 4.5v4a2.5 2.5 0 0 1-2.5 2.5h-4A2.5 2.5 0 0 1 13 8.5v-4A2.5 2.5 0 0 1 15.5 2h4Zm-11 0A2.5 2.5 0 0 1 11 4.5v4A2.5 2.5 0 0 1 8.5 11h-4A2.5 2.5 0 0 1 2 8.5v-4A2.5 2.5 0 0 1 4.5 2h4Zm10.75 1.75h-3.5a1 1 0 0 0-1 1v3.5a1 1 0 0 0 1 1h3.5a1 1 0 0 0 1-1v-3.5a1 1 0 0 0-1-1Zm-11 0h-3.5a1 1 0 0 0-1 1v3.5a1 1 0 0 0 1 1h3.5a1 1 0 0 0 1-1v-3.5a1 1 0 0 0-1-1Zm10 1.5a.5.5 0 0 1 .5.5v1.5a.5.5 0 0 1-.5.5h-1.5a.5.5 0 0 1-.5-.5v-1.5a.5.5 0 0 1 .5-.5h1.5Zm-11 0a.5.5 0 0 1 .5.5v1.5a.5.5 0 0 1-.5.5h-1.5a.5.5 0 0 1-.5-.5v-1.5a.5.5 0 0 1 .5-.5h1.5Z" fill="#222"/></symbol><symbol fill="none" viewBox="0 0 24 24" id="search" ><path fill-rule="evenodd" clip-rule="evenodd" d="M10.75 3.5a7.25 7.25 0 1 0 4.45 12.974l4.264 4.262a.9.9 0 1 0 1.272-1.272L16.474 15.2A7.25 7.25 0 0 0 10.75 3.5Zm0 1.8a5.45 5.45 0 1 0 0 10.9 5.45 5.45 0 0 0 0-10.9Z" fill="currentColor"/></symbol><symbol fill="none" viewBox="0 0 28 28" id="search_28" ><path fill-rule="evenodd" clip-rule="evenodd" d="M13 4a9 9 0 1 0 5.618 16.032l4.675 4.675a1 1 0 0 0 1.414-1.414l-4.675-4.675A9 9 0 0 0 13 4Zm0 2a7 7 0 1 0 0 14 7 7 0 0 0 0-14Z" fill="#6D7885"/></symbol><symbol fill="none" viewBox="0 0 24 24" id="smartphone_outline" ><path fill-rule="evenodd" clip-rule="evenodd" d="M11.18 3.9h1.64c1.094 0 1.806.001 2.35.046.522.042.728.116.838.172a2 2 0 0 1 .874.874c.056.11.13.316.172.839.045.543.046 1.255.046 2.349v7.64c0 1.094-.001 1.806-.046 2.35-.042.522-.116.728-.172.838a2 2 0 0 1-.874.874c-.11.056-.316.13-.839.172-.543.045-1.255.046-2.349.046h-1.64c-1.094 0-1.806-.001-2.35-.046-.522-.042-.728-.116-.838-.172a2 2 0 0 1-.874-.874c-.056-.11-.13-.316-.172-.839-.045-.543-.046-1.255-.046-2.349V8.18c0-1.094.001-1.806.046-2.35.042-.522.116-.728.172-.838a2 2 0 0 1 .874-.874c.11-.056.316-.13.839-.172.543-.045 1.255-.046 2.349-.046ZM5.1 8.18c0-2.128 0-3.192.414-4.005a3.8 3.8 0 0 1 1.66-1.66C7.989 2.1 9.053 2.1 11.18 2.1h1.64c2.128 0 3.192 0 4.005.414a3.8 3.8 0 0 1 1.66 1.66c.415.814.415 1.878.415 4.006v7.64c0 2.128 0 3.192-.414 4.005a3.8 3.8 0 0 1-1.66 1.66c-.814.415-1.878.415-4.006.415h-1.64c-2.128 0-3.192 0-4.005-.414a3.8 3.8 0 0 1-1.66-1.66C5.1 19.011 5.1 17.947 5.1 15.82V8.18Zm6.15 8.02a.9.9 0 1 0 0 1.8h1.5a.9.9 0 0 0 0-1.8h-1.5Z" fill="currentColor"/></symbol><symbol fill="none" viewBox="0 0 20 20" id="sort_outline_20" ><path d="M6 17V4M3 14l3 3M9 14l-3 3M14 3v13M17 6l-3-3M11 6l3-3" stroke="currentColor" stroke-width="1.5" stroke-linecap="round"/></symbol><symbol fill="none" viewBox="0 0 24 24" id="sparkle_24" ><path fill-rule="evenodd" clip-rule="evenodd" d="M10.128 5.664a8.013 8.013 0 0 1-4.464 4.464l-3.286 1.314a.601.601 0 0 0 0 1.116l3.286 1.314a8.013 8.013 0 0 1 4.464 4.464l1.314 3.286a.601.601 0 0 0 1.116 0l1.314-3.286a8.013 8.013 0 0 1 4.464-4.464l3.286-1.314a.601.601 0 0 0 0-1.116l-3.286-1.314a8.013 8.013 0 0 1-4.464-4.464l-1.314-3.286a.601.601 0 0 0-1.116 0l-1.314 3.286ZM12 6.376l-.013.032a10.016 10.016 0 0 1-5.58 5.58l-.03.012.03.013a10.015 10.015 0 0 1 5.58 5.58l.013.03.013-.03a10.015 10.015 0 0 1 5.58-5.58l.03-.013-.03-.013a10.015 10.015 0 0 1-5.58-5.58L12 6.378Z" fill="currentColor"/></symbol><symbol fill="none" viewBox="0 0 16 16" id="sparkles" ><path fill-rule="evenodd" clip-rule="evenodd" d="M7.224 5.119c.3.919.716 1.875 1.249 2.407.532.533 1.488.948 2.408 1.249a15.33 15.33 0 0 0 1.043.303c.256.065.256.525 0 .591a19.393 19.393 0 0 0-.764.215l-.28.088c-.919.301-1.875.716-2.407 1.249-.533.532-.948 1.485-1.249 2.401a14.943 14.943 0 0 0-.26.877c-.015.056-.03.11-.043.164-.066.255-.526.255-.592 0a19.218 19.218 0 0 0-.303-1.041c-.301-.916-.716-1.87-1.249-2.401-.532-.533-1.485-.948-2.402-1.249a15.176 15.176 0 0 0-1.041-.303c-.255-.066-.255-.525 0-.591a19.026 19.026 0 0 0 1.041-.304c.917-.3 1.87-.716 2.402-1.248.533-.532.948-1.488 1.249-2.407a15.228 15.228 0 0 0 .303-1.044c.066-.255.526-.255.592 0a18.908 18.908 0 0 0 .303 1.044Z" fill="#6D7885"/><path d="M11.83 1.35c.093-.28.49-.28.583 0l.372 1.116c.117.352.393.628.745.745l1.116.372c.28.093.28.49 0 .583l-1.113.371c-.353.118-.63.396-.746.75l-.373 1.133a.307.307 0 0 1-.585 0l-.372-1.131a1.177 1.177 0 0 0-.75-.75l-1.132-.372a.307.307 0 0 1 0-.584l1.135-.373c.353-.117.63-.393.749-.746l.37-1.114Z" fill="#6D7885"/></symbol><symbol fill="none" viewBox="0 0 14 13" id="star" ><path d="m9.234 4.383 2.953.283c1.028.099 1.343 1.103.55 1.762l-2.313 1.921.859 3.13c.282 1.029-.593 1.65-1.469 1.032l-2.809-1.984-2.809 1.984c-.872.616-1.75-.003-1.468-1.031l.858-3.13-2.312-1.922c-.797-.662-.483-1.663.549-1.762l2.953-.283 1.3-3c.408-.938 1.451-.938 1.858.001l1.3 2.999Z" fill="currentColor"/></symbol><symbol fill="none" viewBox="0 0 14 16" id="star_new_empty" ><path fill-rule="evenodd" clip-rule="evenodd" d="M8.205 7.065 7 4.285l-1.205 2.78-2.64.253 2.128 1.77-.71 2.59L7 9.965l2.428 1.715-.71-2.592 2.128-1.769-2.64-.253Zm2.215 2.558L12.732 7.7c.793-.659.478-1.663-.55-1.761L9.23 5.656l-1.3-2.999c-.407-.938-1.45-.939-1.858 0l-1.3 3-2.953.283C.786 6.039.472 7.04 1.27 7.7l2.312 1.922-.858 3.13c-.282 1.028.596 1.648 1.468 1.032l2.81-1.985 2.808 1.985c.876.618 1.75-.004 1.469-1.032l-.858-3.13Z" fill="currentColor"/></symbol><symbol fill="none" viewBox="0 0 14 16" id="star_new_full" ><path d="m9.23 5.656 2.952.284c1.028.098 1.343 1.102.55 1.761L10.42 9.623l.858 3.13c.282 1.028-.593 1.65-1.469 1.032L7 11.8l-2.809 1.985c-.872.616-1.75-.004-1.468-1.032l.858-3.13L1.269 7.7C.472 7.04.786 6.04 1.82 5.94l2.952-.284 1.3-2.999c.408-.939 1.451-.938 1.858 0l1.3 3Z" fill="currentColor"/></symbol><symbol fill="none" viewBox="0 0 14 16" id="star_new_half" ><path fill-rule="evenodd" clip-rule="evenodd" d="m7.853 6.253.352.812.881.085 1.76.168L9.46 8.47l-.744.618.256.933.455 1.659-1.562-1.104L7 9.964V4.286l.853 1.967Zm4.879 1.448L10.42 9.623l.858 3.13c.282 1.028-.593 1.65-1.469 1.032L7 11.8l-2.809 1.985c-.872.616-1.75-.004-1.468-1.032l.858-3.13L1.269 7.7C.472 7.04.786 6.04 1.82 5.94l2.952-.284 1.3-2.999c.408-.939 1.451-.938 1.858 0l1.3 3 2.953.283c1.028.098 1.343 1.102.55 1.761Z" fill="currentColor"/></symbol><symbol fill="none" viewBox="0 0 20 20" id="tablet_outline" ><path d="M7.75 12a.75.75 0 0 0 0 1.5h5.5a.75.75 0 0 0 0-1.5h-5.5Z" fill="currentColor"/><path fill-rule="evenodd" clip-rule="evenodd" d="M18.75 6.67c0-.535 0-.98-.03-1.345-.03-.38-.098-.736-.27-1.073A2.75 2.75 0 0 0 17.25 3.05c-.338-.172-.694-.24-1.074-.27-.365-.03-.81-.03-1.345-.03H5.17c-.535 0-.98 0-1.345.03-.38.03-.736.098-1.073.27A2.75 2.75 0 0 0 1.55 4.252c-.172.337-.24.693-.27 1.073-.03.365-.03.81-.03 1.345v6.66c0 .535 0 .98.03 1.345.03.38.098.736.27 1.073a2.75 2.75 0 0 0 1.202 1.202c.337.172.693.24 1.073.27.365.03.81.03 1.345.03h9.66c.535 0 .98 0 1.345-.03.38-.03.736-.098 1.073-.27a2.751 2.751 0 0 0 1.202-1.201c.172-.338.24-.694.27-1.074.03-.365.03-.81.03-1.345V6.67Zm-1.636-1.737c.046.09.088.227.111.514.024.296.025.68.025 1.253v6.6c0 .572 0 .957-.025 1.252-.023.288-.065.425-.111.516a1.25 1.25 0 0 1-.547.546c-.09.046-.227.088-.515.111-.295.024-.68.025-1.252.025H5.2c-.572 0-.957 0-1.253-.025-.287-.023-.424-.065-.514-.111a1.25 1.25 0 0 1-.547-.546c-.046-.091-.088-.228-.111-.515-.024-.296-.025-.68-.025-1.253V6.7c0-.572 0-.957.025-1.253.023-.287.065-.424.111-.514a1.25 1.25 0 0 1 .547-.547c.09-.046.227-.088.514-.111.296-.024.68-.025 1.253-.025h9.6c.572 0 .957 0 1.252.025.288.023.425.065.515.111.236.12.427.311.547.547Z" fill="currentColor"/></symbol><symbol fill="none" viewBox="0 0 20 20" id="tv_outline" ><path fill-rule="evenodd" clip-rule="evenodd" d="M5 4.5h10A1.5 1.5 0 0 1 16.5 6v6a1.5 1.5 0 0 1-1.5 1.5H5A1.5 1.5 0 0 1 3.5 12V6A1.5 1.5 0 0 1 5 4.5ZM2 6a3 3 0 0 1 3-3h10a3 3 0 0 1 3 3v6a3 3 0 0 1-3 3h-2l1.146 1.146a.5.5 0 0 1-.353.854H6.207a.5.5 0 0 1-.353-.854L7 15H5a3 3 0 0 1-3-3V6Z" fill="currentColor"/></symbol><symbol fill="none" viewBox="0 0 33 16" id="vk_id" ><path d="M20 13h1.648V3.5H20V13ZM23.78 13h3.694c2.939 0 5.026-1.967 5.026-4.757 0-2.776-2.087-4.743-5.026-4.743H23.78V13Zm1.648-1.482V4.982h2.046c1.964 0 3.31 1.334 3.31 3.261 0 1.94-1.346 3.275-3.31 3.275h-2.046Z" fill="currentColor"/><path d="M0 7.68c0-3.62 0-5.43 1.125-6.555C2.249 0 4.06 0 7.68 0h.64c3.62 0 5.43 0 6.555 1.125C16 2.249 16 4.06 16 7.68v.64c0 3.62 0 5.43-1.125 6.555C13.751 16 11.94 16 8.32 16h-.64c-3.62 0-5.43 0-6.555-1.125C0 13.751 0 11.94 0 8.32v-.64Z" fill="#07F"/><path d="M8.563 11.66c-3.646 0-5.726-2.5-5.813-6.66h1.827c.06 3.053 1.406 4.343 2.473 4.61V5h1.72v2.63c1.053-.113 2.16-1.31 2.533-2.63h1.72c-.286 1.627-1.486 2.827-2.34 3.32.854.4 2.22 1.447 2.74 3.34H11.53c-.407-1.267-1.42-2.247-2.76-2.38v2.38h-.207Z" fill="#fff"/></symbol></svg>